:FULLY-SPECIFIED
:FORCE-ALL-JOINTS-BE-3DOF
:DEGREES
2039
root -3.2616 15.2008 22.2781 898.213 -9.4014 173.349
lfemur -15.1528 12.4591 -23.0432
ltibia 56.3495 0 0
lfoot -24.4175 17.1915 0
ltoes -41.397 0 0
rfemur -51.5401 -10.6174 13.0375
rtibia 57.0732 0 0
rfoot 2.49945 -2.02552 0
rtoes -3.10577 0 0
lowerback 15.2812 -0.712294 -8.43546
upperback -0.528987 -2.36587 2.06426
thorax -8.7662 -0.731272 7.59158
lowerneck -2.49034 -3.48361 -6.21155
upperneck 6.98943 -4.58826 1.10356
head 2.85997 -2.4714 1.27697
lclavicle 3.16698e-14 8.95968e-15 0
lhumerus -0.675142 -35.5936 84.6181
lradius 64.6933 0 0
lwrist -1.97012 0 0
lhand -20.1423 38.6763 0
lfingers 7.12502 0 0
lthumb 0.685159 -652.573 0
rclavicle -3.14171e-14 -1.21258e-14 0
rhumerus 14.1933 7.99681 -76.0389
rradius 120.193 0 0
rwrist -36.7137 0 0
rhand 55.2097 -407.843 0
rfingers 7.12502 0 0
rthumb 27.1422 298.492 0
2040
root -3.26541 15.2056 22.0939 897.863 -10.239 173.527
lfemur -13.3574 11.5426 -22.7464
ltibia 56.3702 0 0
lfoot -24.6501 17.7835 0
ltoes -41.3972 0 0
rfemur -52.1554 -10.7712 13.0238
rtibia 53.205 0 0
rfoot 5.41292 -1.53245 0
rtoes -2.41433 0 0
lowerback 15.1515 -0.581494 -8.35997
upperback -0.560002 -2.15297 2.19863
thorax -8.76456 -0.626372 7.64687
lowerneck -2.21055 -3.81038 -6.68754
upperneck 7.25919 -5.05479 1.24264
head 2.94148 -2.72548 1.39097
lclavicle 3.72115e-14 8.83869e-15 0
lhumerus -1.48747 -35.3316 84.8546
lradius 67.937 0 0
lwrist -1.66074 0 0
lhand -19.8136 38.5286 0
lfingers 7.12502 0 0
lthumb 0.159899 -652.185 0
rclavicle -2.64416e-14 -1.25059e-14 0
rhumerus 18.3103 7.19025 -74.9981
rradius 115.931 0 0
rwrist -33.9957 0 0
rhand 58.3812 -408.381 0
rfingers 7.12502 0 0
rthumb 26.5983 298.354 0
2041
root -3.27233 15.2092 21.9048 897.514 -10.9536 173.731
lfemur -11.6114 10.6513 -22.4577
ltibia 56.3978 0 0
lfoot -24.906 18.4349 0
ltoes -41.3973 0 0
rfemur -52.6134 -10.8856 13.0136
rtibia 49.6044 0 0
rfoot 8.35308 -1.03487 0
rtoes -1.74986 0 0
lowerback 14.8445 -0.438836 -8.15285
upperback -0.532614 -1.89101 2.26898
thorax -8.61271 -0.516754 7.53409
lowerneck -1.92782 -4.15302 -7.05193
upperneck 7.45086 -5.54498 1.34477
head 2.99486 -2.98709 1.47303
lclavicle 4.26188e-14 8.72064e-15 0
lhumerus -2.78933 -34.9118 85.2336
lradius 71.24 0 0
lwrist -1.55401 0 0
lhand -19.5274 38.4 0
lfingers 7.12502 0 0
lthumb -0.455951 -651.73 0
rclavicle -2.09665e-14 -1.29242e-14 0
rhumerus 22.0611 6.45542 -74.05
rradius 111.139 0 0
rwrist -31.1222 0 0
rhand 60.9968 -408.825 0
rfingers 7.12502 0 0
rthumb 26.0495 298.214 0
2042
root -3.28162 15.2068 21.7152 897.114 -11.4771 173.989
lfemur -9.94755 9.80203 -22.1826
ltibia 56.4317 0 0
lfoot -25.1819 19.1371 0
ltoes -41.4343 0 0
rfemur -52.8992 -10.9571 13.0073
rtibia 46.348 0 0
rfoot 11.2666 -0.541801 0
rtoes -1.12316 0 0
lowerback 14.5745 -0.248299 -7.82483
upperback -0.477313 -1.55162 2.32165
thorax -8.46736 -0.376232 7.31832
lowerneck -1.78362 -4.5135 -7.41086
upperneck 7.69028 -6.04796 1.42839
head 3.09333 -3.25561 1.54426
lclavicle 4.7838e-14 8.6067e-15 0
lhumerus -4.53815 -34.3478 85.7428
lradius 74.5727 0 0
lwrist -1.32167 0 0
lhand -19.2914 38.2939 0
lfingers 7.12502 0 0
lthumb -1.15285 -651.215 0
rclavicle -1.51166e-14 -1.3371e-14 0
rhumerus 25.3895 5.80337 -73.2086
rradius 105.892 0 0
rwrist -28.1276 0 0
rhand 62.971 -409.16 0
rfingers 7.12502 0 0
rthumb 25.5056 298.076 0
2043
root -3.294 15.2028 21.5257 896.764 -11.9125 174.118
lfemur -8.39887 9.01149 -21.9266
ltibia 56.4709 0 0
lfoot -25.4744 19.8817 0
ltoes -41.5409 0 0
rfemur -52.9978 -10.9817 13.0051
rtibia 43.5121 0 0
rfoot 14.1 -0.0622842 0
rtoes -0.545016 0 0
lowerback 14.2891 -0.0767466 -7.61554
upperback -0.499185 -1.26061 2.32717
thorax -8.38527 -0.246462 7.13237
lowerneck -1.56668 -4.78235 -7.65745
upperneck 8.03605 -6.44127 1.39008
head 3.20105 -3.47711 1.55965
lclavicle 5.28152e-14 8.49803e-15 0
lhumerus -6.69135 -33.6533 86.3697
lradius 77.9054 0 0
lwrist -0.648183 0 0
lhand -19.1132 38.2138 0
lfingers 7.12502 0 0
lthumb -1.92128 -650.647 0
rclavicle -9.0169e-15 -1.3837e-14 0
rhumerus 28.239 5.24513 -72.4883
rradius 100.268 0 0
rwrist -25.0465 0 0
rhand 64.2183 -409.371 0
rfingers 7.12502 0 0
rthumb 24.9767 297.942 0
2044
root -3.30855 15.1975 21.3299 896.378 -12.2025 174.276
lfemur -6.9982 8.2965 -21.695
ltibia 56.5147 0 0
lfoot -25.7803 20.6602 0
ltoes -41.7106 0 0
rfemur -53.0209 -11.0146 12.9965
rtibia 41.1734 0 0
rfoot 16.7999 0.39465 0
rtoes -0.0262119 0 0
lowerback 13.9297 0.133994 -7.33748
upperback -0.464749 -0.90402 2.31158
thorax -8.2095 -0.095303 6.86806
lowerneck -1.55852 -5.0361 -7.87449
upperneck 8.51845 -6.79767 1.32082
head 3.39262 -3.68335 1.5538
lclavicle 5.74968e-14 8.39582e-15 0
lhumerus -9.20639 -32.8422 87.102
lradius 81.2084 0 0
lwrist 0.431162 0 0
lhand -19.0006 38.1632 0
lfingers 7.12502 0 0
lthumb -2.75168 -650.033 0
rclavicle -2.7923e-15 -1.43125e-14 0
rhumerus 30.5534 4.79172 -71.9032
rradius 94.3411 0 0
rwrist -21.9135 0 0
rhand 64.653 -409.445 0
rfingers 7.12502 0 0
rthumb 24.4727 297.814 0
2045
root -3.3255 15.1816 21.1391 896.036 -12.4569 174.315
lfemur -5.77844 7.67386 -21.4934
ltibia 56.5625 0 0
lfoot -26.0962 21.4641 0
ltoes -41.9365 0 0
rfemur -53.0874 -11.1095 12.9717
rtibia 39.4081 0 0
rfoot 19.3131 0.819967 0
rtoes 0.422459 0 0
lowerback 13.6593 0.339061 -7.12
upperback -0.45209 -0.578564 2.22614
thorax -8.09943 0.0469064 6.57442
lowerneck -1.69976 -5.27686 -8.04638
upperneck 9.11175 -7.12763 1.25929
head 3.65083 -3.8776 1.53684
lclavicle 6.18289e-14 8.30124e-15 0
lhumerus -12.0407 -31.9281 87.9272
lradius 84.4521 0 0
lwrist 1.88107 0 0
lhand -18.9614 38.1456 0
lfingers 7.12502 0 0
lthumb -3.63453 -649.381 0
rclavicle 3.4323e-15 -1.4788e-14 0
rhumerus 32.2762 4.4542 -71.4677
rradius 88.1872 0 0
rwrist -18.7632 0 0
rhand 64.2653 -409.413 0
rfingers 7.12502 0 0
rthumb 24.0036 297.694 0
2046
root -3.33815 15.1603 20.9527 895.736 -12.7523 174.341
lfemur -4.77249 7.16036 -21.3271
ltibia 56.6133 0 0
lfoot -26.4187 22.285 0
ltoes -42.2122 0 0
rfemur -53.1935 -11.2608 12.9322
rtibia 38.2929 0 0
rfoot 21.586 1.20463 0
rtoes 0.790207 0 0
lowerback 13.4413 0.547677 -6.94353
upperback -0.451189 -0.263663 2.08847
thorax -8.02677 0.187293 6.25324
lowerneck -1.97405 -5.56441 -8.07695
upperneck 9.80588 -7.51132 1.12942
head 3.96592 -4.09841 1.46168
lclavicle 6.57578e-14 8.21547e-15 0
lhumerus -15.1517 -30.9248 88.8329
lradius 87.6068 0 0
lwrist 3.66626 0 0
lhand -19.0258 38.1805 0
lfingers 7.12502 0 0
lthumb -4.56029 -648.697 0
rclavicle 9.53199e-15 -1.5254e-14 0
rhumerus 33.3512 4.24359 -71.1959
rradius 81.8818 0 0
rwrist -15.6303 0 0
rhand 63.1447 -409.319 0
rfingers 7.12502 0 0
rthumb 23.5793 297.587 0
2047
root -3.35855 15.1282 20.7562 895.344 -12.9026 174.161
lfemur -4.01322 6.77278 -21.2015
ltibia 56.6664 0 0
lfoot -26.7446 23.1144 0
ltoes -42.531 0 0
rfemur -53.3351 -11.4628 12.8794
rtibia 37.9042 0 0
rfoot 23.5654 1.53962 0
rtoes 1.06624 0 0
lowerback 13.264 0.838153 -6.90972
upperback -0.416764 0.12479 1.83445
thorax -7.94899 0.365234 5.8749
lowerneck -2.03581 -5.85725 -8.29028
upperneck 10.3616 -7.94503 1.39415
head 4.22907 -4.33103 1.55428
lclavicle 6.92298e-14 8.13967e-15 0
lhumerus -18.4967 -29.8459 89.8069
lradius 90.6428 0 0
lwrist 5.75142 0 0
lhand -19.2113 38.2812 0
lfingers 7.12502 0 0
lthumb -5.51943 -647.988 0
rclavicle 1.53819e-14 -1.57008e-14 0
rhumerus 33.7221 4.17094 -71.1022
rradius 75.5008 0 0
rwrist -12.5492 0 0
rhand 61.3549 -409.169 0
rfingers 7.12502 0 0
rthumb 23.2098 297.493 0
2048
root -3.37548 15.084 20.5618 894.709 -13.1837 173.94
lfemur -3.53354 6.52792 -21.1222
ltibia 56.721 0 0
lfoot -27.0705 23.9438 0
ltoes -42.8863 0 0
rfemur -53.5084 -11.71 12.8148
rtibia 38.0461 0 0
rfoot 25.1978 1.81589 0
rtoes 1.23978 0 0
lowerback 13.3073 1.14408 -6.95791
upperback -0.1936 0.491633 1.49589
thorax -7.78457 0.520394 5.45937
lowerneck -2.29942 -6.29804 -8.35458
upperneck 11.271 -8.58833 1.79748
head 4.19324 -4.63998 1.48409
lclavicle 7.2191e-14 8.07502e-15 0
lhumerus -22.0334 -28.7053 90.8365
lradius 93.5304 0 0
lwrist 8.10128 0 0
lhand -19.5063 38.4413 0
lfingers 7.12502 0 0
lthumb -6.5024 -647.262 0
rclavicle 2.0857e-14 -1.61191e-14 0
rhumerus 33.7724 4.16199 -71.0623
rradius 69.1199 0 0
rwrist -9.55454 0 0
rhand 58.9596 -408.969 0
rfingers 7.12502 0 0
rthumb 22.9051 297.415 0
